<?xml version="1.0" encoding="utf-8"?>
<!-- Generator: Adobe Illustrator 19.2.1, SVG Export Plug-In . SVG Version: 6.00 Build 0)  -->
<svg xmlns="http://www.w3.org/2000/svg" xmlns:xlink="http://www.w3.org/1999/xlink" version="1.1" id="Layer" x="0px" y="0px" width="512" height="512" viewBox="0 0 64 64" enable-background="new 0 0 64 64" xml:space="preserve">
<path fill="#CCE4FF" d="M18,30c-1.56,1.56-2.44,2.44-4,4v16c1.56,1.56,2.44,2.44,4,4h28c1.56-1.56,2.44-2.44,4-4V34  c-1.56-1.56-2.44-2.44-4-4H18z M38,46H26v-8h12V46z"/>
<path fill="#007AFF" d="M16,18v11.171l-4,4v17.656L17.171,56h29.657L52,50.828V33.172l-4-4V18c0-5.514-4.486-10-10-10H26  C20.486,8,16,12.486,16,18z M48,49.172L45.172,52H18.829L16,49.172V34.828L18.829,32H20h24h1.172L48,34.828V49.172z M44,18v10H20V18  c0-3.309,2.691-6,6-6h12C41.309,12,44,14.691,44,18z"/>
<path fill="#007AFF" d="M24,48h16V36H24V48z M28,40h8v4h-8V40z"/>
</svg>
