<svg height="384pt" viewBox="-48 0 384 384" width="384pt" xmlns="http://www.w3.org/2000/svg"><path d="m272 128h-256v240h256zm-128 144c-22.078125 0-40-17.921875-40-40s17.921875-40 40-40 40 17.921875 40 40-17.921875 40-40 40zm0 0" fill="#cce4ff"/><g fill="#007aff"><path d="m48 0v112h-48v272h288v-272h-48v-112zm32 32h128v80h-128zm176 112v208h-224v-208zm0 0"/><path d="m144 176c-30.871094 0-56 25.128906-56 56 0 25.3125 16.902344 46.734375 40 53.640625v34.359375h32v-34.359375c23.105469-6.90625 40-28.328125 40-53.640625 0-30.871094-25.128906-56-56-56zm0 80c-13.230469 0-24-10.769531-24-24s10.769531-24 24-24 24 10.769531 24 24-10.769531 24-24 24zm0 0"/></g></svg>