<?xml version="1.0" encoding="iso-8859-1"?>
<!-- Generator: Adobe Illustrator 19.0.0, SVG Export Plug-In . SVG Version: 6.00 Build 0)  -->
<svg version="1.1" id="Capa_1" xmlns="http://www.w3.org/2000/svg" xmlns:xlink="http://www.w3.org/1999/xlink" x="0px" y="0px"
	 viewBox="0 0 512 512" style="enable-background:new 0 0 512 512;" xml:space="preserve">
<path style="fill:#53433F;" d="M421,165v76h-60v-76c0-57.9-47.1-105-105-105s-105,47.1-105,105v76H91v-76C91,74.099,165.099,0,256,0
	S421,74.099,421,165z"/>
<path style="fill:#3E322E;" d="M256,60V0c90.901,0,165,74.099,165,165v76h-60v-76C361,107.1,313.9,60,256,60z"/>
<polygon style="fill:#53433F;" points="451,451 451,512 61,512 61,451 92.8,421 426.7,421 "/>
<polygon style="fill:#3E322E;" points="451,451 451,512 256,512 256,421 426.7,421 "/>
<rect x="61" y="211" style="fill:#17ACE8;" width="390" height="240"/>
<rect x="256" y="211" style="fill:#1689FC;" width="195" height="240"/>
<rect x="241" y="346" style="fill:#53433F;" width="30" height="75"/>
<rect x="256" y="346" style="fill:#3E322E;" width="15" height="75"/>
<path style="fill:#53433F;" d="M256,271c-24.901,0-45,20.099-45,45c0,24.899,20.099,45,45,45s45-20.101,45-45
	C301,291.099,280.901,271,256,271z"/>
<path style="fill:#3E322E;" d="M301,316c0,24.899-20.099,45-45,45v-90C280.901,271,301,291.099,301,316z"/>
<g>
</g>
<g>
</g>
<g>
</g>
<g>
</g>
<g>
</g>
<g>
</g>
<g>
</g>
<g>
</g>
<g>
</g>
<g>
</g>
<g>
</g>
<g>
</g>
<g>
</g>
<g>
</g>
<g>
</g>
</svg>
